# xmcd
#
# Track frame offsets: 
#        150
#        15138
#        28607
#        43695
#        59929
#        74550
#        87816
#        103562
#        113428
#        124969
#        138299
#        152659
#        171052
#
# Disc length: 2476 seconds
#
# Revision: 0
# Processed by: cddbd v1.5.2PL0 Copyright (c) Steve Scherf et al.
# Submitted via: ExactAudioCopy v1.1
#
DISCID=a609aa0d
DTITLE=Freddie Scott - Cry To Me The Shout Records Years 1966-67
DYEAR=2018
DGENRE=R&B
TTITLE0=Are You Lonely For Me
TTITLE1=Where Were You
TTITLE2=Cry To Me
TTITLE3=No One Could Ever Love You
TTITLE4=Am I Grooving You
TTITLE5=Never You Mind
TTITLE6=He Will Break Your Heart
TTITLE7=I'll Be Gone
TTITLE8=Run Joe
TTITLE9=He Ain't Give You None
TTITLE10=Let It Be Me
TTITLE11=Shake A Hand
TTITLE12=The Love Of My Woman
EXTD=
EXTT0=
EXTT1=
EXTT2=
EXTT3=
EXTT4=
EXTT5=
EXTT6=
EXTT7=
EXTT8=
EXTT9=
EXTT10=
EXTT11=
EXTT12=
PLAYORDER=
